{
    "asset" : {
        "generator" : "Khronos glTF Blender I/O v1.4.40",
        "version" : "2.0"
    },
    "scene" : 0,
    "scenes" : [
        {
            "name" : "Scene",
            "nodes" : [
                0,
                1,
                2,
                3
            ]
        }
    ],
    "nodes" : [
        {
            "name" : "Light",
            "rotation" : [
                0.16907575726509094,
                0.7558803558349609,
                -0.27217137813568115,
                0.570947527885437
            ],
            "translation" : [
                7.112096786499023,
                6.277804374694824,
                -0.8053049445152283
            ]
        },
        {
            "name" : "Camera",
            "rotation" : [
                0.483536034822464,
                0.33687159419059753,
                -0.20870360732078552,
                0.7804827094078064
            ],
            "translation" : [
                7.358891487121582,
                4.958309173583984,
                6.925790786743164
            ]
        },
        {
            "mesh" : 0,
            "name" : "antena_001-0-laptop"
        },
        {
            "name" : "Light.001",
            "rotation" : [
                0.16907575726509094,
                0.7558803558349609,
                -0.27217137813568115,
                0.570947527885437
            ],
            "translation" : [
                -6.216066360473633,
                6.277804374694824,
                -0.8053049445152283
            ]
        }
    ],
    "materials" : [
        {
            "doubleSided" : true,
            "name" : "Material.001",
            "pbrMetallicRoughness" : {
                "baseColorFactor" : [
                    0.3108133375644684,
                    0.3108133375644684,
                    0.3108133375644684,
                    1
                ],
                "metallicFactor" : 0,
                "roughnessFactor" : 0.5
            }
        },
        {
            "doubleSided" : true,
            "name" : "Material.002",
            "pbrMetallicRoughness" : {
                "baseColorFactor" : [
                    0.32785966992378235,
                    0.7678554058074951,
                    0.814041793346405,
                    1
                ],
                "metallicFactor" : 0,
                "roughnessFactor" : 0.5
            }
        },
        {
            "doubleSided" : true,
            "name" : "Material.003",
            "pbrMetallicRoughness" : {
                "baseColorFactor" : [
                    0.2935190200805664,
                    0.7324577569961548,
                    0.8000000715255737,
                    1
                ],
                "metallicFactor" : 0,
                "roughnessFactor" : 0.5
            }
        }
    ],
    "meshes" : [
        {
            "name" : "antena_001-0-laptop",
            "primitives" : [
                {
                    "attributes" : {
                        "POSITION" : 0,
                        "NORMAL" : 1,
                        "COLOR_0" : 2
                    },
                    "indices" : 3,
                    "material" : 0
                },
                {
                    "attributes" : {
                        "POSITION" : 4,
                        "NORMAL" : 5,
                        "COLOR_0" : 6
                    },
                    "indices" : 7,
                    "material" : 1
                },
                {
                    "attributes" : {
                        "POSITION" : 8,
                        "NORMAL" : 9,
                        "COLOR_0" : 10
                    },
                    "indices" : 11,
                    "material" : 2
                }
            ]
        }
    ],
    "accessors" : [
        {
            "bufferView" : 0,
            "componentType" : 5126,
            "count" : 68976,
            "max" : [
                3.299999952316284,
                4.900000095367432,
                3.9000000953674316
            ],
            "min" : [
                -3.200000047683716,
                0,
                -3.799999952316284
            ],
            "type" : "VEC3"
        },
        {
            "bufferView" : 1,
            "componentType" : 5126,
            "count" : 68976,
            "type" : "VEC3"
        },
        {
            "bufferView" : 2,
            "componentType" : 5123,
            "count" : 68976,
            "normalized" : true,
            "type" : "VEC4"
        },
        {
            "bufferView" : 3,
            "componentType" : 5125,
            "count" : 103464,
            "type" : "SCALAR"
        },
        {
            "bufferView" : 4,
            "componentType" : 5126,
            "count" : 5248,
            "max" : [
                3.200000047683716,
                1.100000023841858,
                3.0999999046325684
            ],
            "min" : [
                -0.4000000059604645,
                1,
                -0.800000011920929
            ],
            "type" : "VEC3"
        },
        {
            "bufferView" : 5,
            "componentType" : 5126,
            "count" : 5248,
            "type" : "VEC3"
        },
        {
            "bufferView" : 6,
            "componentType" : 5123,
            "count" : 5248,
            "normalized" : true,
            "type" : "VEC4"
        },
        {
            "bufferView" : 7,
            "componentType" : 5123,
            "count" : 7872,
            "type" : "SCALAR"
        },
        {
            "bufferView" : 8,
            "componentType" : 5126,
            "count" : 8976,
            "max" : [
                -0.8999999761581421,
                4.699999809265137,
                3.700000047683716
            ],
            "min" : [
                -2,
                1.399999976158142,
                -1.399999976158142
            ],
            "type" : "VEC3"
        },
        {
            "bufferView" : 9,
            "componentType" : 5126,
            "count" : 8976,
            "type" : "VEC3"
        },
        {
            "bufferView" : 10,
            "componentType" : 5123,
            "count" : 8976,
            "normalized" : true,
            "type" : "VEC4"
        },
        {
            "bufferView" : 11,
            "componentType" : 5123,
            "count" : 13464,
            "type" : "SCALAR"
        }
    ],
    "bufferViews" : [
        {
            "buffer" : 0,
            "byteLength" : 827712,
            "byteOffset" : 0
        },
        {
            "buffer" : 0,
            "byteLength" : 827712,
            "byteOffset" : 827712
        },
        {
            "buffer" : 0,
            "byteLength" : 551808,
            "byteOffset" : 1655424
        },
        {
            "buffer" : 0,
            "byteLength" : 413856,
            "byteOffset" : 2207232
        },
        {
            "buffer" : 0,
            "byteLength" : 62976,
            "byteOffset" : 2621088
        },
        {
            "buffer" : 0,
            "byteLength" : 62976,
            "byteOffset" : 2684064
        },
        {
            "buffer" : 0,
            "byteLength" : 41984,
            "byteOffset" : 2747040
        },
        {
            "buffer" : 0,
            "byteLength" : 15744,
            "byteOffset" : 2789024
        },
        {
            "buffer" : 0,
            "byteLength" : 107712,
            "byteOffset" : 2804768
        },
        {
            "buffer" : 0,
            "byteLength" : 107712,
            "byteOffset" : 2912480
        },
        {
            "buffer" : 0,
            "byteLength" : 71808,
            "byteOffset" : 3020192
        },
        {
            "buffer" : 0,
            "byteLength" : 26928,
            "byteOffset" : 3092000
        }
    ],
    "buffers" : [
        {
            "byteLength" : 3118928,
            "uri" : "data:application/octet-stream;base64,"
        }
    ]
}
