{
    "asset" : {
        "generator" : "Khronos glTF Blender I/O v1.4.40",
        "version" : "2.0"
    },
    "scene" : 0,
    "scenes" : [
        {
            "name" : "Scene",
            "nodes" : [
                0,
                1,
                2
            ]
        }
    ],
    "nodes" : [
        {
            "name" : "Light",
            "rotation" : [
                0.16907575726509094,
                0.7558803558349609,
                -0.27217137813568115,
                0.570947527885437
            ],
            "translation" : [
                4.076245307922363,
                5.903861999511719,
                -1.0054539442062378
            ]
        },
        {
            "name" : "Camera",
            "rotation" : [
                0.483536034822464,
                0.33687159419059753,
                -0.20870360732078552,
                0.7804827094078064
            ],
            "translation" : [
                7.358891487121582,
                4.958309173583984,
                6.925790786743164
            ]
        },
        {
            "mesh" : 0,
            "name" : "antena_001-1-Antena",
            "rotation" : [
                0,
                0.7635952234268188,
                0,
                0.6456952095031738
            ],
            "translation" : [
                0,
                3.2117247581481934,
                0
            ]
        }
    ],
    "materials" : [
        {
            "doubleSided" : true,
            "name" : "Material.001",
            "pbrMetallicRoughness" : {
                "baseColorFactor" : [
                    0.1574343740940094,
                    0.1574343740940094,
                    0.1574343740940094,
                    1
                ],
                "metallicFactor" : 0,
                "roughnessFactor" : 0.5
            }
        },
        {
            "doubleSided" : true,
            "name" : "Material.002",
            "pbrMetallicRoughness" : {
                "baseColorFactor" : [
                    0.8000000715255737,
                    0.7204397916793823,
                    0.1681937277317047,
                    1
                ],
                "metallicFactor" : 0,
                "roughnessFactor" : 0.5
            }
        },
        {
            "doubleSided" : true,
            "name" : "Material.003",
            "pbrMetallicRoughness" : {
                "baseColorFactor" : [
                    0.0071935756132006645,
                    0.0071935756132006645,
                    0.0071935756132006645,
                    1
                ],
                "metallicFactor" : 0,
                "roughnessFactor" : 0.5
            }
        }
    ],
    "meshes" : [
        {
            "name" : "antena_001-1-Antena",
            "primitives" : [
                {
                    "attributes" : {
                        "POSITION" : 0,
                        "NORMAL" : 1,
                        "COLOR_0" : 2
                    },
                    "indices" : 3,
                    "material" : 0
                },
                {
                    "attributes" : {
                        "POSITION" : 4,
                        "NORMAL" : 5,
                        "COLOR_0" : 6
                    },
                    "indices" : 7,
                    "material" : 1
                },
                {
                    "attributes" : {
                        "POSITION" : 8,
                        "NORMAL" : 9,
                        "COLOR_0" : 10
                    },
                    "indices" : 11,
                    "material" : 2
                }
            ]
        }
    ],
    "accessors" : [
        {
            "bufferView" : 0,
            "componentType" : 5126,
            "count" : 55720,
            "max" : [
                3.217557907104492,
                3.301304340362549,
                2.332645893096924
            ],
            "min" : [
                -3.2824416160583496,
                -1.6986956596374512,
                -2.167354106903076
            ],
            "type" : "VEC3"
        },
        {
            "bufferView" : 1,
            "componentType" : 5126,
            "count" : 55720,
            "type" : "VEC3"
        },
        {
            "bufferView" : 2,
            "componentType" : 5123,
            "count" : 55720,
            "normalized" : true,
            "type" : "VEC4"
        },
        {
            "bufferView" : 3,
            "componentType" : 5123,
            "count" : 83580,
            "type" : "SCALAR"
        },
        {
            "bufferView" : 4,
            "componentType" : 5126,
            "count" : 696,
            "max" : [
                0.31755828857421875,
                0.9013042449951172,
                3.5326459407806396
            ],
            "min" : [
                -0.08244132995605469,
                0.5013043880462646,
                2.7326457500457764
            ],
            "type" : "VEC3"
        },
        {
            "bufferView" : 5,
            "componentType" : 5126,
            "count" : 696,
            "type" : "VEC3"
        },
        {
            "bufferView" : 6,
            "componentType" : 5123,
            "count" : 696,
            "normalized" : true,
            "type" : "VEC4"
        },
        {
            "bufferView" : 7,
            "componentType" : 5123,
            "count" : 1044,
            "type" : "SCALAR"
        },
        {
            "bufferView" : 8,
            "componentType" : 5126,
            "count" : 20856,
            "max" : [
                1.2175579071044922,
                0.7013044357299805,
                3.5326459407806396
            ],
            "min" : [
                -0.9824419021606445,
                -3.198695659637451,
                -2.367354154586792
            ],
            "type" : "VEC3"
        },
        {
            "bufferView" : 9,
            "componentType" : 5126,
            "count" : 20856,
            "type" : "VEC3"
        },
        {
            "bufferView" : 10,
            "componentType" : 5123,
            "count" : 20856,
            "normalized" : true,
            "type" : "VEC4"
        },
        {
            "bufferView" : 11,
            "componentType" : 5123,
            "count" : 31284,
            "type" : "SCALAR"
        }
    ],
    "bufferViews" : [
        {
            "buffer" : 0,
            "byteLength" : 668640,
            "byteOffset" : 0
        },
        {
            "buffer" : 0,
            "byteLength" : 668640,
            "byteOffset" : 668640
        },
        {
            "buffer" : 0,
            "byteLength" : 445760,
            "byteOffset" : 1337280
        },
        {
            "buffer" : 0,
            "byteLength" : 167160,
            "byteOffset" : 1783040
        },
        {
            "buffer" : 0,
            "byteLength" : 8352,
            "byteOffset" : 1950200
        },
        {
            "buffer" : 0,
            "byteLength" : 8352,
            "byteOffset" : 1958552
        },
        {
            "buffer" : 0,
            "byteLength" : 5568,
            "byteOffset" : 1966904
        },
        {
            "buffer" : 0,
            "byteLength" : 2088,
            "byteOffset" : 1972472
        },
        {
            "buffer" : 0,
            "byteLength" : 250272,
            "byteOffset" : 1974560
        },
        {
            "buffer" : 0,
            "byteLength" : 250272,
            "byteOffset" : 2224832
        },
        {
            "buffer" : 0,
            "byteLength" : 166848,
            "byteOffset" : 2475104
        },
        {
            "buffer" : 0,
            "byteLength" : 62568,
            "byteOffset" : 2641952
        }
    ],
    "buffers" : [
        {
            "byteLength" : 2704520,
            "uri" : "data:application/octet-stream;base64,"
        }
    ]
}
